<svg width="15" height="14" viewBox="0 0 15 14" fill="none" xmlns="http://www.w3.org/2000/svg">
<path d="M12.75 3.75C13.1478 3.75 13.5294 3.59196 13.8107 3.31066C14.092 3.02936 14.25 2.64782 14.25 2.25C14.25 1.85218 14.092 1.47064 13.8107 1.18934C13.5294 0.908035 13.1478 0.75 12.75 0.75H2.25C1.85218 0.75 1.47064 0.908035 1.18934 1.18934C0.908035 1.47064 0.75 1.85218 0.75 2.25C0.75 2.64782 0.908035 3.02936 1.18934 3.31066C1.47064 3.59196 1.85218 3.75 2.25 3.75M12.75 3.75H2.25M12.75 3.75V11.25C12.75 11.6478 12.592 12.0294 12.3107 12.3107C12.0294 12.592 11.6478 12.75 11.25 12.75H3.75C3.35218 12.75 2.97064 12.592 2.68934 12.3107C2.40804 12.0294 2.25 11.6478 2.25 11.25V3.75M6 6.75H9" stroke="white" stroke-width="1.5" stroke-linecap="round" stroke-linejoin="round"/>
</svg>
