<svg width="13" height="14" viewBox="0 0 13 14" fill="none" xmlns="http://www.w3.org/2000/svg">
<path d="M4.08333 10.0833V10.75C4.08333 11.2804 4.29405 11.7891 4.66912 12.1642C5.04419 12.5393 5.5529 12.75 6.08333 12.75C6.61377 12.75 7.12247 12.5393 7.49755 12.1642C7.87262 11.7891 8.08333 11.2804 8.08333 10.75V10.0833M4.75 2.08333C4.75 1.72971 4.89048 1.39057 5.14052 1.14052C5.39057 0.890476 5.72971 0.75 6.08333 0.75C6.43696 0.75 6.77609 0.890476 7.02614 1.14052C7.27619 1.39057 7.41667 1.72971 7.41667 2.08333C8.18227 2.44535 8.83493 3.00888 9.3047 3.71353C9.77447 4.41818 10.0436 5.23738 10.0833 6.08333V8.08333C10.1335 8.4978 10.2803 8.89471 10.5119 9.24208C10.7435 9.58946 11.0534 9.87761 11.4167 10.0833H0.75C1.11329 9.87761 1.42321 9.58946 1.65479 9.24208C1.88638 8.89471 2.03316 8.4978 2.08333 8.08333V6.08333C2.12304 5.23738 2.3922 4.41818 2.86197 3.71353C3.33173 3.00888 3.98439 2.44535 4.75 2.08333Z" stroke="#262626" stroke-width="1.5" stroke-linecap="round" stroke-linejoin="round"/>
</svg>
