<svg width="14" height="14" viewBox="0 0 14 14" fill="none" xmlns="http://www.w3.org/2000/svg">
<path d="M2.77848 11.2327C2.94349 10.6835 3.28113 10.2021 3.74131 9.85997C4.2015 9.51784 4.75971 9.33315 5.33315 9.33332H7.99982C8.57399 9.33313 9.13289 9.51825 9.59341 9.86118C10.0539 10.2041 10.3915 10.6865 10.5558 11.2367M0.666504 6.66666C0.666504 7.45459 0.821698 8.2348 1.12323 8.96276C1.42475 9.69071 1.86671 10.3521 2.42386 10.9093C2.98101 11.4664 3.64245 11.9084 4.3704 12.2099C5.09836 12.5115 5.87857 12.6667 6.6665 12.6667C7.45444 12.6667 8.23465 12.5115 8.9626 12.2099C9.69056 11.9084 10.352 11.4664 10.9091 10.9093C11.4663 10.3521 11.9083 9.69071 12.2098 8.96276C12.5113 8.2348 12.6665 7.45459 12.6665 6.66666C12.6665 5.87873 12.5113 5.09851 12.2098 4.37056C11.9083 3.6426 11.4663 2.98117 10.9091 2.42402C10.352 1.86686 9.69056 1.42491 8.9626 1.12338C8.23465 0.821851 7.45444 0.666656 6.6665 0.666656C5.87857 0.666656 5.09836 0.821851 4.3704 1.12338C3.64245 1.42491 2.98101 1.86686 2.42386 2.42402C1.86671 2.98117 1.42475 3.6426 1.12323 4.37056C0.821698 5.09851 0.666504 5.87873 0.666504 6.66666ZM4.6665 5.33332C4.6665 5.86376 4.87722 6.37246 5.25229 6.74754C5.62736 7.12261 6.13607 7.33332 6.6665 7.33332C7.19694 7.33332 7.70565 7.12261 8.08072 6.74754C8.45579 6.37246 8.6665 5.86376 8.6665 5.33332C8.6665 4.80289 8.45579 4.29418 8.08072 3.91911C7.70565 3.54404 7.19694 3.33332 6.6665 3.33332C6.13607 3.33332 5.62736 3.54404 5.25229 3.91911C4.87722 4.29418 4.6665 4.80289 4.6665 5.33332Z" stroke="#111625" stroke-width="1.33333" stroke-linecap="round" stroke-linejoin="round"/>
</svg>
