<svg width="26" height="10" viewBox="0 0 26 10" fill="none" xmlns="http://www.w3.org/2000/svg">
<path d="M1.84932 9.11932C1.51125 9.11932 1.20159 9.03693 0.920344 8.87216C0.639094 8.70455 0.414662 8.48011 0.247048 8.19886C0.0822755 7.91761 -0.000110924 7.60796 -0.000110924 7.26989C-0.000110924 6.92898 0.0822755 6.6179 0.247048 6.33665C0.414662 6.0554 0.639094 5.83097 0.920344 5.66335C1.20159 5.49574 1.51125 5.41193 1.84932 5.41193H2.83796V3.69886H1.84932C1.51125 3.69886 1.20159 3.61648 0.920344 3.4517C0.639094 3.28409 0.414662 3.06108 0.247048 2.78267C0.0822755 2.50142 -0.000110924 2.19034 -0.000110924 1.84943C-0.000110924 1.50852 0.0822755 1.19886 0.247048 0.920455C0.414662 0.639205 0.639094 0.416193 0.920344 0.251421C1.20159 0.083807 1.51125 0 1.84932 0C2.19023 0 2.50131 0.083807 2.78256 0.251421C3.06381 0.416193 3.28824 0.639205 3.45586 0.920455C3.62347 1.19886 3.70728 1.50852 3.70728 1.84943V2.82955H5.42034V1.84943C5.42034 1.50852 5.50273 1.19886 5.6675 0.920455C5.83512 0.639205 6.05813 0.416193 6.33654 0.251421C6.61779 0.083807 6.92887 0 7.26978 0C7.61068 0 7.92034 0.083807 8.19875 0.251421C8.48 0.416193 8.70301 0.639205 8.86779 0.920455C9.0354 1.19886 9.11921 1.50852 9.11921 1.84943C9.11921 2.19034 9.0354 2.50142 8.86779 2.78267C8.70301 3.06108 8.48 3.28409 8.19875 3.4517C7.92034 3.61648 7.61068 3.69886 7.26978 3.69886H6.28966V5.41193H7.26978C7.61068 5.41193 7.92034 5.49574 8.19875 5.66335C8.48 5.83097 8.70301 6.0554 8.86779 6.33665C9.0354 6.6179 9.11921 6.92898 9.11921 7.26989C9.11921 7.60796 9.0354 7.91761 8.86779 8.19886C8.70301 8.48011 8.48 8.70455 8.19875 8.87216C7.92034 9.03693 7.61068 9.11932 7.26978 9.11932C6.92887 9.11932 6.61779 9.03693 6.33654 8.87216C6.05813 8.70455 5.83512 8.48011 5.6675 8.19886C5.50273 7.91761 5.42034 7.60796 5.42034 7.26989V6.28125H3.70728V7.26989C3.70728 7.60796 3.62347 7.91761 3.45586 8.19886C3.28824 8.48011 3.06381 8.70455 2.78256 8.87216C2.50131 9.03693 2.19023 9.11932 1.84932 9.11932ZM1.84932 8.25C2.03114 8.25 2.19591 8.20597 2.34364 8.1179C2.49421 8.02983 2.61353 7.91193 2.70159 7.76421C2.7925 7.61364 2.83796 7.44886 2.83796 7.26989V6.28125H1.84932C1.67034 6.28125 1.50557 6.3267 1.355 6.41761C1.20728 6.50568 1.08938 6.625 1.00131 6.77557C0.913241 6.9233 0.869207 7.08807 0.869207 7.26989C0.869207 7.44886 0.913241 7.61364 1.00131 7.76421C1.08938 7.91193 1.20728 8.02983 1.355 8.1179C1.50557 8.20597 1.67034 8.25 1.84932 8.25ZM1.84932 2.82955H2.83796V1.84943C2.83796 1.66761 2.7925 1.50284 2.70159 1.35511C2.61353 1.20739 2.49421 1.08949 2.34364 1.00142C2.19591 0.913352 2.03114 0.869318 1.84932 0.869318C1.67034 0.869318 1.50557 0.913352 1.355 1.00142C1.20728 1.08949 1.08938 1.20739 1.00131 1.35511C0.913241 1.50284 0.869207 1.66761 0.869207 1.84943C0.869207 2.03125 0.913241 2.19744 1.00131 2.34801C1.08938 2.49574 1.20728 2.61364 1.355 2.7017C1.50557 2.78693 1.67034 2.82955 1.84932 2.82955ZM6.28966 2.82955H7.26978C7.45159 2.82955 7.61637 2.78693 7.76409 2.7017C7.91182 2.61364 8.02972 2.49574 8.11779 2.34801C8.20586 2.19744 8.24989 2.03125 8.24989 1.84943C8.24989 1.66761 8.20586 1.50284 8.11779 1.35511C8.02972 1.20739 7.91182 1.08949 7.76409 1.00142C7.61637 0.913352 7.45159 0.869318 7.26978 0.869318C7.08796 0.869318 6.92176 0.913352 6.7712 1.00142C6.62347 1.08949 6.50557 1.20739 6.4175 1.35511C6.33228 1.50284 6.28966 1.66761 6.28966 1.84943V2.82955ZM7.26978 8.25C7.45159 8.25 7.61637 8.20597 7.76409 8.1179C7.91182 8.02983 8.02972 7.91193 8.11779 7.76421C8.20586 7.61364 8.24989 7.44886 8.24989 7.26989C8.24989 7.08807 8.20586 6.9233 8.11779 6.77557C8.02972 6.625 7.91182 6.50568 7.76409 6.41761C7.61637 6.3267 7.45159 6.28125 7.26978 6.28125H6.28966V7.26989C6.28966 7.44886 6.33228 7.61364 6.4175 7.76421C6.50557 7.91193 6.62347 8.02983 6.7712 8.1179C6.92176 8.20597 7.08796 8.25 7.26978 8.25ZM3.70728 5.41193H5.42034V3.69886H3.70728V5.41193ZM14.04 7.38921V1.7642H14.9946V7.38921H14.04ZM11.7048 5.05398V4.09943H17.3298V5.05398H11.7048ZM19.5297 8.9233V0.196023H20.5865V4.52557H20.6888L24.6093 0.196023H25.9899L22.3252 4.13352L25.9899 8.9233H24.7115L21.6774 4.86648L20.5865 6.09375V8.9233H19.5297Z" fill="#404040"/>
</svg>
