<svg width="12" height="14" viewBox="0 0 12 14" fill="none" xmlns="http://www.w3.org/2000/svg">
<path d="M0.666504 3.33332H11.3332M4.6665 5.99999V9.99999M7.33317 5.99999V9.99999M1.33317 3.33332L1.99984 11.3333C1.99984 11.6869 2.14031 12.0261 2.39036 12.2761C2.64041 12.5262 2.97955 12.6667 3.33317 12.6667H8.6665C9.02013 12.6667 9.35926 12.5262 9.60931 12.2761C9.85936 12.0261 9.99984 11.6869 9.99984 11.3333L10.6665 3.33332M3.99984 3.33332V1.33332C3.99984 1.15651 4.07008 0.986943 4.1951 0.861919C4.32012 0.736894 4.48969 0.666656 4.6665 0.666656H7.33317C7.50998 0.666656 7.67955 0.736894 7.80458 0.861919C7.9296 0.986943 7.99984 1.15651 7.99984 1.33332V3.33332" stroke="#DF1C41" stroke-width="1.33333" stroke-linecap="round" stroke-linejoin="round"/>
</svg>
