<svg width="20" height="20" viewBox="0 0 20 20" fill="none" xmlns="http://www.w3.org/2000/svg">
<path d="M17.5 3.75H7.5C6.80964 3.75 6.25 4.30964 6.25 5V15C6.25 15.6904 6.80964 16.25 7.5 16.25H17.5C18.1904 16.25 18.75 15.6904 18.75 15V5C18.75 4.30964 18.1904 3.75 17.5 3.75Z" stroke="#151515" stroke-width="1.5" stroke-linecap="round" stroke-linejoin="round"/>
<path d="M3.75 13.75H2.5C2.16848 13.75 1.85054 13.6183 1.61612 13.3839C1.3817 13.1495 1.25 12.8315 1.25 12.5V2.5C1.25 2.16848 1.3817 1.85054 1.61612 1.61612C1.85054 1.3817 2.16848 1.25 2.5 1.25H12.5C12.8315 1.25 13.1495 1.3817 13.3839 1.61612C13.6183 1.85054 13.75 2.16848 13.75 2.5V3.75" stroke="#151515" stroke-width="1.5" stroke-linecap="round" stroke-linejoin="round"/>
<path d="M12.1875 9.0625C12.7053 9.0625 13.125 8.64277 13.125 8.125C13.125 7.60723 12.7053 7.1875 12.1875 7.1875C11.6697 7.1875 11.25 7.60723 11.25 8.125C11.25 8.64277 11.6697 9.0625 12.1875 9.0625Z" fill="#151515"/>
<path d="M18.75 13.125L15 9.375L7.5 16.25" stroke="#151515" stroke-width="1.5" stroke-linecap="round" stroke-linejoin="round"/>
</svg>
