<svg width="13" height="12" viewBox="0 0 13 12" fill="none" xmlns="http://www.w3.org/2000/svg">
<path d="M9.33317 4.62255L11.9998 7.28922M11.9998 4.62255L9.33317 7.28922M2.6665 7.95586H1.33317C1.15636 7.95586 0.98679 7.88563 0.861766 7.7606C0.736742 7.63558 0.666504 7.46601 0.666504 7.2892V4.62253C0.666504 4.44572 0.736742 4.27615 0.861766 4.15113C0.98679 4.0261 1.15636 3.95586 1.33317 3.95586H2.6665L4.99984 0.955864C5.05811 0.842684 5.15494 0.754079 5.27283 0.706058C5.39072 0.658038 5.52191 0.65377 5.64267 0.694026C5.76344 0.734281 5.86582 0.816404 5.93133 0.925557C5.99683 1.03471 6.02113 1.16369 5.99984 1.2892V10.6225C6.02113 10.748 5.99683 10.877 5.93133 10.9862C5.86582 11.0953 5.76344 11.1774 5.64267 11.2177C5.52191 11.258 5.39072 11.2537 5.27283 11.2057C5.15494 11.1576 5.05811 11.069 4.99984 10.9559L2.6665 7.95586Z" stroke="#111625" stroke-width="1.33333" stroke-linecap="round" stroke-linejoin="round"/>
</svg>
