<svg width="14" height="12" viewBox="0 0 14 12" fill="none" xmlns="http://www.w3.org/2000/svg">
<path d="M11.3332 3.33332C11.6868 3.33332 12.0259 3.19285 12.276 2.9428C12.526 2.69275 12.6665 2.35361 12.6665 1.99999C12.6665 1.64637 12.526 1.30723 12.276 1.05718C12.0259 0.807132 11.6868 0.666656 11.3332 0.666656H1.99984C1.64622 0.666656 1.30708 0.807132 1.05703 1.05718C0.80698 1.30723 0.666504 1.64637 0.666504 1.99999C0.666504 2.35361 0.80698 2.69275 1.05703 2.9428C1.30708 3.19285 1.64622 3.33332 1.99984 3.33332M11.3332 3.33332H1.99984M11.3332 3.33332V9.99999C11.3332 10.3536 11.1927 10.6928 10.9426 10.9428C10.6926 11.1928 10.3535 11.3333 9.99984 11.3333H3.33317C2.97955 11.3333 2.64041 11.1928 2.39036 10.9428C2.14031 10.6928 1.99984 10.3536 1.99984 9.99999V3.33332M5.33317 5.99999H7.99984" stroke="#111625" stroke-width="1.33333" stroke-linecap="round" stroke-linejoin="round"/>
</svg>
