<svg width="14" height="14" viewBox="0 0 14 14" fill="none" xmlns="http://www.w3.org/2000/svg">
<path d="M5.63333 1.628C5.91733 0.457333 7.58267 0.457333 7.86667 1.628C7.90928 1.80387 7.99281 1.96719 8.11047 2.10467C8.22813 2.24215 8.37659 2.3499 8.54377 2.41916C8.71094 2.48843 8.89211 2.51723 9.07252 2.50325C9.25294 2.48926 9.4275 2.43287 9.582 2.33867C10.6107 1.712 11.7887 2.88933 11.162 3.91867C11.0679 4.0731 11.0116 4.24756 10.9977 4.42785C10.9837 4.60814 11.0125 4.78918 11.0817 4.95625C11.1509 5.12333 11.2585 5.27172 11.3958 5.38937C11.5331 5.50702 11.6963 5.5906 11.872 5.63333C13.0427 5.91733 13.0427 7.58267 11.872 7.86667C11.6961 7.90928 11.5328 7.99281 11.3953 8.11047C11.2579 8.22813 11.1501 8.37659 11.0808 8.54377C11.0116 8.71094 10.9828 8.89211 10.9968 9.07252C11.0107 9.25294 11.0671 9.4275 11.1613 9.582C11.788 10.6107 10.6107 11.7887 9.58133 11.162C9.4269 11.0679 9.25244 11.0116 9.07215 10.9977C8.89186 10.9837 8.71082 11.0125 8.54375 11.0817C8.37667 11.1509 8.22828 11.2585 8.11063 11.3958C7.99298 11.5331 7.9094 11.6963 7.86667 11.872C7.58267 13.0427 5.91733 13.0427 5.63333 11.872C5.59072 11.6961 5.50719 11.5328 5.38953 11.3953C5.27187 11.2579 5.12341 11.1501 4.95623 11.0808C4.78906 11.0116 4.60789 10.9828 4.42748 10.9968C4.24706 11.0107 4.0725 11.0671 3.918 11.1613C2.88933 11.788 1.71133 10.6107 2.338 9.58133C2.43207 9.4269 2.48837 9.25244 2.50232 9.07215C2.51628 8.89186 2.4875 8.71082 2.41831 8.54375C2.34913 8.37667 2.24151 8.22828 2.10418 8.11063C1.96686 7.99298 1.80371 7.9094 1.628 7.86667C0.457333 7.58267 0.457333 5.91733 1.628 5.63333C1.80387 5.59072 1.96719 5.50719 2.10467 5.38953C2.24215 5.27187 2.3499 5.12341 2.41916 4.95623C2.48843 4.78906 2.51723 4.60789 2.50325 4.42748C2.48926 4.24706 2.43287 4.0725 2.33867 3.918C1.712 2.88933 2.88933 1.71133 3.91867 2.338C4.58533 2.74333 5.44933 2.38467 5.63333 1.628Z" stroke="#262626" stroke-width="1.5" stroke-linecap="round" stroke-linejoin="round"/>
<path d="M4.75 6.75C4.75 7.28043 4.96071 7.78914 5.33579 8.16421C5.71086 8.53929 6.21957 8.75 6.75 8.75C7.28043 8.75 7.78914 8.53929 8.16421 8.16421C8.53929 7.78914 8.75 7.28043 8.75 6.75C8.75 6.21957 8.53929 5.71086 8.16421 5.33579C7.78914 4.96071 7.28043 4.75 6.75 4.75C6.21957 4.75 5.71086 4.96071 5.33579 5.33579C4.96071 5.71086 4.75 6.21957 4.75 6.75Z" stroke="#262626" stroke-width="1.5" stroke-linecap="round" stroke-linejoin="round"/>
</svg>
